<?xml version="1.0" encoding="utf-8"?>
<!-- Generator: Adobe Illustrator 16.0.0, SVG Export Plug-In . SVG Version: 6.00 Build 0)  -->
<!DOCTYPE svg PUBLIC "-//W3C//DTD SVG 1.1//EN" "http://www.w3.org/Graphics/SVG/1.1/DTD/svg11.dtd">
<svg version="1.1" id="Layer_1" xmlns="http://www.w3.org/2000/svg" xmlns:xlink="http://www.w3.org/1999/xlink" x="0px" y="0px"
	 width="79.954px" height="325.512px" viewBox="0 0 79.954 325.512" enable-background="new 0 0 79.954 325.512"
	 xml:space="preserve">
<g>
	<path fill="none" stroke="#000000" stroke-miterlimit="10" d="M0.5,49.426c0,21.804,17.675,39.479,39.478,39.479
		c21.801-0.002,39.479-17.675,39.477-39.477C79.458,27.622,61.778,9.95,39.976,9.95C18.177,9.95,0.5,27.624,0.5,49.426"/>
	<line fill="none" stroke="#000000" stroke-miterlimit="10" x1="40.044" y1="325.512" x2="40.044" y2="0"/>
	<path d="M42.757,29.459l-3.621,0.262h1.811L42.757,29.459z M37.327,29.459h5.43l-3.621,0.262L37.327,29.459z"/>
	<path d="M30.093,19.833c0,5.462,4.426,9.888,9.885,9.888c5.461,0,9.886-4.426,9.884-9.886c0.002-5.46-4.425-9.885-9.886-9.885
		C34.519,9.95,30.093,14.375,30.093,19.833"/>
	<path fill="none" stroke="#000000" stroke-miterlimit="10" d="M20.271,69.198c-0.002,10.885,8.824,19.703,19.707,19.707
		c10.885-0.002,19.706-8.822,19.706-19.707c0-10.886-8.821-19.707-19.706-19.705C29.093,49.491,20.271,58.314,20.271,69.198"/>
	<path d="M34.096,88.84c0.002,3.248,2.636,5.881,5.88,5.881c3.248,0,5.879-2.633,5.881-5.881c0-3.248-2.633-5.881-5.879-5.883
		C36.729,82.958,34.096,85.592,34.096,88.84"/>
	<circle cx="39.978" cy="49.427" r="2.002"/>
	<path fill="none" stroke="#000000" stroke-miterlimit="10" d="M26.215,23.842c0,7.599,6.161,13.762,13.763,13.76
		c7.602,0.002,13.763-6.161,13.763-13.762c0-7.6-6.161-13.762-13.761-13.762C32.376,10.079,26.214,16.241,26.215,23.842"/>
	<path d="M36.554,3.422c0,1.893,1.533,3.426,3.424,3.424c1.892,0,3.425-1.529,3.423-3.424C43.402,1.533,41.869,0,39.978,0
		C38.085,0,36.554,1.531,36.554,3.422"/>
</g>
</svg>
