<?xml version="1.0" encoding="utf-8"?>
<!-- Generator: Adobe Illustrator 16.0.0, SVG Export Plug-In . SVG Version: 6.00 Build 0)  -->
<!DOCTYPE svg PUBLIC "-//W3C//DTD SVG 1.1//EN" "http://www.w3.org/Graphics/SVG/1.1/DTD/svg11.dtd">
<svg version="1.1" id="Layer_1" xmlns="http://www.w3.org/2000/svg" xmlns:xlink="http://www.w3.org/1999/xlink" x="0px" y="0px"
	 width="79.954px" height="325.512px" viewBox="0 0 79.954 325.512" enable-background="new 0 0 79.954 325.512"
	 xml:space="preserve">
<g>
	<line fill="none" stroke="#000000" stroke-miterlimit="10" x1="39.739" y1="112.568" x2="40.007" y2="325.512"/>
	<path fill="none" stroke="#000000" stroke-miterlimit="10" d="M54.647,134.753c3.369-8.155-0.513-17.496-8.667-20.867
		c-8.156-3.368-17.499,0.515-20.864,8.671c-3.371,8.154,0.511,17.497,8.667,20.864C41.937,146.788,51.28,142.909,54.647,134.753"/>
	<path d="M47.412,123.915c1.724-4.173-0.26-8.953-4.436-10.675c-4.175-1.724-8.955,0.261-10.675,4.434
		c-1.725,4.173,0.259,8.953,4.436,10.677C40.908,130.076,45.687,128.09,47.412,123.915"/>
	<line fill="none" stroke="#000000" stroke-miterlimit="10" x1="40.007" y1="325.512" x2="63.449" y2="179.678"/>
	<path d="M72.736,174.846c1.726-4.174-0.261-8.953-4.436-10.68c-4.175-1.723-8.957,0.266-10.681,4.438
		c-1.72,4.174,0.269,8.953,4.438,10.678C66.23,181.004,71.011,179.02,72.736,174.846"/>
	<line fill="none" stroke="#000000" stroke-miterlimit="10" x1="40.007" y1="325.512" x2="16.254" y2="179.725"/>
	<path d="M22.286,174.858c1.724-4.174-0.263-8.953-4.438-10.678c-4.173-1.723-8.953,0.264-10.675,4.436
		c-1.726,4.174,0.263,8.955,4.436,10.676C15.78,181.016,20.561,179.03,22.286,174.858"/>
</g>
</svg>
