<?xml version="1.0" encoding="utf-8"?>
<!-- Generator: Adobe Illustrator 16.0.0, SVG Export Plug-In . SVG Version: 6.00 Build 0)  -->
<!DOCTYPE svg PUBLIC "-//W3C//DTD SVG 1.1//EN" "http://www.w3.org/Graphics/SVG/1.1/DTD/svg11.dtd">
<svg version="1.1" id="Layer_1" xmlns="http://www.w3.org/2000/svg" xmlns:xlink="http://www.w3.org/1999/xlink" x="0px" y="0px"
	 width="159.5px" height="272.929px" viewBox="0 0 159.5 272.929" enable-background="new 0 0 159.5 272.929" xml:space="preserve">
<g>
	<path fill="#26F9A3" d="M18.627,61.773c0,15.335,51.054,211.156,63.146,211.156c14.126,0,62.422-177.042,62.422-211.156
		C144.194,27.656,81.41,0,81.41,0S18.627,27.656,18.627,61.773z"/>
	
		<ellipse fill="#51087A" stroke="#FFFFFF" stroke-width="2.1488" stroke-miterlimit="10" cx="79.692" cy="97.006" rx="77.5" ry="76.252"/>
	<path fill="#F90395" stroke="#FFFFFF" stroke-width="2.1488" stroke-miterlimit="10" d="M41.997,97.006
		c0,21.577,17.778,39.067,39.709,39.067c21.932,0,39.711-17.491,39.711-39.067c0-21.58-17.779-39.07-39.711-39.07
		C59.775,57.936,41.997,75.426,41.997,97.006"/>
	<path fill="#890FCF" stroke="#FFFFFF" stroke-width="2.1488" stroke-miterlimit="10" d="M67.862,71.684
		c0,7.523,6.199,13.62,13.844,13.62c7.647,0,13.844-6.097,13.844-13.62c0-7.522-6.196-13.621-13.844-13.621
		C74.062,58.063,67.862,64.161,67.862,71.684"/>
	<path d="M84.502,76.85l-3.641,0.256h1.821L84.502,76.85z M79.042,77.105h5.46l-3.641,0.255L79.042,77.105z"/>
	<path fill="#890FCF" stroke="#FFFFFF" stroke-width="2.1488" stroke-miterlimit="10" d="M61.883,116.572
		c0,10.771,8.876,19.501,19.823,19.501c10.95,0,19.821-8.73,19.821-19.501S92.656,97.07,81.706,97.07
		C70.759,97.07,61.883,105.8,61.883,116.572"/>
	<line fill="none" stroke="#FFFFFF" stroke-width="2" stroke-miterlimit="10" x1="81.25" y1="275.105" x2="81.25" y2="48.105"/>
	<path fill="#26F9A3" stroke="#FFFFFF" stroke-width="2.1488" stroke-miterlimit="10" d="M71.764,67.719
		c0,5.403,4.45,9.782,9.942,9.782c5.493,0,9.944-4.379,9.944-9.782c0-5.404-4.451-9.783-9.944-9.783
		C76.214,57.936,71.764,62.315,71.764,67.719"/>
	<path fill="#26F9A3" stroke="#FFFFFF" stroke-width="2.1488" stroke-miterlimit="10" d="M75.792,136.011
		c0,3.214,2.648,5.82,5.914,5.82c3.269,0,5.913-2.606,5.913-5.82s-2.645-5.82-5.913-5.82
		C78.44,130.19,75.792,132.797,75.792,136.011"/>
	<path fill="#F90395" stroke="#FFFFFF" stroke-width="2.1488" stroke-miterlimit="10" d="M76.341,97.01
		c0,2.913,2.4,5.281,5.365,5.281c2.967,0,5.368-2.368,5.368-5.281c0-2.918-2.401-5.285-5.368-5.285
		C78.741,91.725,76.341,94.091,76.341,97.01z"/>
	<path fill="#F90395" stroke="#FFFFFF" stroke-width="2.1488" stroke-miterlimit="10" d="M75.284,45.35
		c0,3.493,2.874,6.319,6.422,6.319c3.549,0,6.425-2.826,6.425-6.319c0-3.49-2.876-6.319-6.425-6.319
		C78.158,39.031,75.284,41.86,75.284,45.35"/>
</g>
</svg>
