<?xml version="1.0" encoding="utf-8"?>
<!-- Generator: Adobe Illustrator 16.0.0, SVG Export Plug-In . SVG Version: 6.00 Build 0)  -->
<!DOCTYPE svg PUBLIC "-//W3C//DTD SVG 1.1//EN" "http://www.w3.org/Graphics/SVG/1.1/DTD/svg11.dtd">
<svg version="1.1" id="Layer_1" xmlns="http://www.w3.org/2000/svg" xmlns:xlink="http://www.w3.org/1999/xlink" x="0px" y="0px"
	 width="66.807px" height="213.418px" viewBox="0 0 66.807 213.418" enable-background="new 0 0 66.807 213.418"
	 xml:space="preserve">
<g>
	<line fill="none" stroke="#000000" stroke-miterlimit="10" x1="33.188" y1="0.475" x2="33.455" y2="213.418"/>
	<path fill="none" stroke="#000000" stroke-miterlimit="10" d="M48.096,22.659c3.369-8.155-0.513-17.496-8.667-20.867
		c-8.156-3.368-17.499,0.515-20.864,8.671c-3.371,8.154,0.511,17.497,8.667,20.864C35.385,34.694,44.729,30.815,48.096,22.659"/>
	<path d="M40.86,11.821c1.724-4.173-0.26-8.953-4.436-10.675C32.25-0.577,27.47,1.407,25.75,5.58
		c-1.725,4.173,0.259,8.953,4.436,10.677C34.356,17.982,39.135,15.996,40.86,11.821"/>
	<line fill="none" stroke="#000000" stroke-miterlimit="10" x1="33.455" y1="213.418" x2="56.897" y2="67.584"/>
	<path d="M66.185,62.752c1.726-4.173-0.261-8.953-4.436-10.679c-4.175-1.724-8.957,0.265-10.681,4.438
		c-1.72,4.173,0.269,8.952,4.438,10.677C59.679,68.911,64.459,66.926,66.185,62.752"/>
	<line fill="none" stroke="#000000" stroke-miterlimit="10" x1="33.455" y1="213.418" x2="9.702" y2="67.631"/>
	<path d="M15.734,62.764c1.724-4.173-0.263-8.953-4.438-10.677c-4.173-1.724-8.953,0.263-10.675,4.436
		c-1.726,4.173,0.263,8.955,4.436,10.675C9.229,68.923,14.009,66.937,15.734,62.764"/>
</g>
</svg>
